<?xml version="1.0" encoding="utf-8"?>
<!-- Generator: Adobe Illustrator 23.0.1, SVG Export Plug-In . SVG Version: 6.00 Build 0)  -->
<svg version="1.1" xmlns="http://www.w3.org/2000/svg" xmlns:xlink="http://www.w3.org/1999/xlink" x="0px" y="0px" viewBox="0 0 512 512" style="enable-background:new 0 0 512 512;" xml:space="preserve">
	<g>
		<path d="M429.58,181.18v-30.56c22.71-12.36,25.82-17.35,19.8-31.78c-11.38-27.3-12.83-27.95-44.32-19.23 c-7.17-6.59-14.46-13.31-21.68-19.93c6.69-29.7,5.97-31.96-12.83-39.15c-22.41-8.6-26.12-6.84-40.36,18.98 c-10.2,0.6-20.43,1.2-30.21,1.78c-13.26-24.16-18.05-26.95-33.54-20.03c-27.47,12.23-27.9,13.31-16.69,45.57 c-3.03,2.41-7.19,5.24-10.83,8.65c-3.86,3.66-7.19,7.87-10.53,11.53c-26.29-7.32-31.76-6.09-37.73,9.93 c-9,24.16-13.59,28.5,18.62,43.47v30.63c-21.43,11.23-25.04,16.57-20.3,29.93c9.58,27,12.51,28.35,45.35,20.96 c7.22,6.74,14.49,13.54,21.53,20.13c-7.04,28.02-6.04,31.56,10.7,38.18c25.94,10.28,27.2,9.75,42.39-18.12 c9.8-0.55,19.73-1.13,29.73-1.7c17.97,27.15,19.95,27.75,46.47,13.99c13.36-6.94,14.19-13.41,4.71-37.5 c7.02-7.52,14.06-15.06,20.93-22.43c29.73,7.85,31.18,7.22,40.21-16.57C458.53,198.1,456.72,194.91,429.58,181.18z M319.23,239.41 c-37.2-0.2-67.88-31.56-67.73-69.18c0.15-37.15,30.56-67.63,67.65-67.88c37.5-0.25,68.31,30.61,68.31,68.43 C387.44,208.45,356.48,239.61,319.23,239.41z"/>
		<path d="M242.39,316.27l-10.23-20.91c11.41-16.06,11.86-20.51,2.91-28.38c-16.92-14.87-18.14-14.83-36.76,1.67 c-7.11-2.11-14.35-4.27-21.51-6.38c-5.36-22.57-6.61-23.87-21.89-22.5c-18.21,1.62-20.16,4.06-21.27,26.49 c-6.78,3.83-13.58,7.66-20.07,11.33c-17.16-12.1-21.37-12.4-29.65-2.48c-14.71,17.56-14.64,18.44,3.83,36.77 c-1.27,2.66-3.17,5.99-4.52,9.54c-1.42,3.8-2.29,7.79-3.35,11.41c-20.44,3.79-23.77,6.46-22.49,19.42 c1.93,19.55,0.24,24.05,27.29,23.51l10.25,20.96c-10.91,14.86-11.59,19.72-3.88,27.28c15.59,15.27,18.05,15.21,38.04-0.83 c7.2,2.2,14.44,4.41,21.47,6.57c4.56,21.53,6.43,23.62,20.1,22.54c21.19-1.65,21.87-2.43,22.94-26.59 c6.52-3.66,13.12-7.37,19.77-11.12c21.38,12.56,22.94,12.31,36.48-5.98c6.82-9.22,5.22-13.92-9.32-27.24 c2.29-7.49,4.58-15.01,6.82-22.36c22.97-4.58,23.75-5.5,21.97-24.79C267.86,318.16,265.56,316.59,242.39,316.27z M186.37,393.05 c-25.52,12.31-57.01,1.12-69.5-24.68c-12.33-25.47-1.72-56.5,23.58-69.09c25.58-12.72,56.98-1.91,69.64,23.97 C222.68,349.04,211.92,380.72,186.37,393.05z"/>
		<path d="M398.47,358.34l-12.25-12.82c4.57-14.29,3.87-17.63-4.44-21.27c-15.72-6.89-16.59-6.58-26.3,9.71 c-5.65,0.11-11.4,0.22-17.08,0.34c-9.1-15.14-10.31-15.8-21.08-11.28c-12.85,5.38-13.7,7.6-9.32,24.14 c-4.04,4.34-8.09,8.7-11.96,12.86c-15.25-4.82-18.37-4.07-22.1,5.05c-6.62,16.15-6.36,16.77,11.27,25.81 c-0.31,2.23-0.92,5.08-1.07,7.97c-0.15,3.08,0.14,6.19,0.21,9.06c-13.96,7.47-15.76,10.18-11.84,19.29 c5.91,13.74,5.73,17.4,25.24,10.76l12.28,12.85c-4.49,13.3-3.86,16.99,3.48,20.69c14.84,7.48,16.61,6.88,27.42-9.39 c5.73-0.07,11.5-0.13,17.1-0.19c8.28,14.58,10.12,15.66,19.8,11.72c15-6.09,15.32-6.82,10.51-24.6c3.89-4.16,7.82-8.38,11.79-12.64 c18.42,4.18,19.5,3.64,25.1-12.77c2.82-8.27,0.57-11.31-13.06-17.62c-0.07-5.97-0.14-11.96-0.22-17.8 c15.62-8.63,15.97-9.48,10.22-23.07C417.4,353.83,415.36,353.22,398.47,358.34z M375.54,427.01 c-15.68,14.83-41.13,13.98-56.15-1.86c-14.83-15.64-14.3-40.62,1.16-55.6c15.63-15.14,40.92-14.55,56.09,1.31 C391.73,386.68,391.24,412.16,375.54,427.01z"/>
	</g>
</svg>
