<?xml version="1.0" encoding="utf-8"?>
<!-- Generator: Adobe Illustrator 23.0.1, SVG Export Plug-In . SVG Version: 6.00 Build 0)  -->
<svg version="1.1" id="Layer_1" xmlns="http://www.w3.org/2000/svg" xmlns:xlink="http://www.w3.org/1999/xlink" x="0px" y="0px"
	 viewBox="0 0 500 500" style="enable-background:new 0 0 500 500;" xml:space="preserve">
<g>
	<path d="M127.32,51.91v30.47H68.68v335.57h58.64v30.47h-91.9V51.91H127.32z"/>
	<path d="M372.68,448.09v-30.47h58.64V82.05h-58.64V51.59h91.9v396.5H372.68z"/>
	<path d="M236.8,386.44v-273.2h135.88v26.85H267.2v94.36h78.45v26.45H267.2v98.7h105.48v26.85H236.8z"/>
	<g>
		<path d="M127.32,386.44v-24.67c17.16,1.18,39.61-2.08,44.5-6.26c4.88-4.17,7.33-15.08,7.33-32.72V113.24h27.18l0.36,213.48
			c0,20.03-3.34,34.69-10.01,43.98c-5.49,7.87-16.33,12.75-32.54,14.66C157.69,386.08,137.81,386.44,127.32,386.44z"/>
	</g>
</g>
</svg>
