<?xml version="1.0" encoding="utf-8"?>
<!-- Generator: Adobe Illustrator 23.0.1, SVG Export Plug-In . SVG Version: 6.00 Build 0)  -->
<svg version="1.1" id="Layer_1" xmlns="http://www.w3.org/2000/svg" xmlns:xlink="http://www.w3.org/1999/xlink" x="0px" y="0px"
	 viewBox="0 0 512 512" style="enable-background:new 0 0 512 512;" xml:space="preserve">
<g>
	<g>
		<path d="M128.22,382.35v-40.91c9.25,0,43.14,0.26,47.3-3.15s4.4-11.73,4.4-21.06V126.65h47.51l0.35,192.62
			c0,24.78-5.61,45.88-16.82,54.52C199.75,382.43,155.27,382.35,128.22,382.35z"/>
		<path d="M252.8,378.31V126.65H384.6v44.41h-83.93v58.84h63.12v43.67h-63.12v60.32h83.93v44.41H252.8z"/>
	</g>
	<path d="M408.84,426v-47.2h45.23V130.2h-45.23V83h99.13v343H408.84z"/>
	<path d="M103.98,83v47.2H58.75V378.8h45.23V426H4.86V83H103.98z"/>
</g>
</svg>
